<?xml version="1.0" encoding="UTF-8"?>
<svg version="1.1" xmlns="http://www.w3.org/2000/svg" width="500" height="500">
<path d="M0 0 C0.74378906 0.34804687 1.48757813 0.69609375 2.25390625 1.0546875 C6.65999977 3.13355417 10.82826882 5.61513706 15 8.125 C15.88389404 8.64888306 15.88389404 8.64888306 16.78564453 9.18334961 C18.22642438 10.06600295 19.61855902 11.02709492 21 12 C21 12.66 21 13.32 21 14 C22.11375 14.4021875 22.11375 14.4021875 23.25 14.8125 C25.89061949 15.95276751 27.85552844 17.09380306 30 19 C30 19.66 30 20.32 30 21 C30.59329102 21.26876953 31.18658203 21.53753906 31.79785156 21.81445312 C34.00540033 23.00290732 35.46542882 24.20742389 37.234375 25.96875 C37.80800781 26.53980469 38.38164062 27.11085937 38.97265625 27.69921875 C39.55917969 28.29347656 40.14570313 28.88773438 40.75 29.5 C41.35199219 30.09425781 41.95398438 30.68851563 42.57421875 31.30078125 C43.14269531 31.87183594 43.71117187 32.44289062 44.296875 33.03125 C45.07562988 33.81338867 45.07562988 33.81338867 45.87011719 34.61132812 C47 36 47 36 47 38 C47.66 38 48.32 38 49 38 C50.2890625 39.4609375 50.2890625 39.4609375 51.625 41.375 C52.07101562 42.00148437 52.51703125 42.62796875 52.9765625 43.2734375 C54 45 54 45 54 47 C54.66 47 55.32 47 56 47 C58.95058346 51.14438275 61.44642159 55.60164896 64 60 C64.6290625 61.07765625 65.258125 62.1553125 65.90625 63.265625 C69.60720167 69.85591613 72.45167321 76.44952065 74.859375 83.61328125 C75.68132828 86.05380691 76.55685222 88.40569338 77.5078125 90.79296875 C79.2593179 95.42678967 80.20512808 100.14307625 81.125 105 C81.29386719 105.85078125 81.46273438 106.7015625 81.63671875 107.578125 C86.86006237 134.3940308 85.18488432 162.28232391 76 188 C75.61972656 189.10601562 75.23945313 190.21203125 74.84765625 191.3515625 C69.68373007 205.64364101 62.05803733 217.89737153 53 230 C52.37351562 230.87527344 51.74703125 231.75054687 51.1015625 232.65234375 C50.57304687 233.38582031 50.04453125 234.11929688 49.5 234.875 C49.0565625 235.49117187 48.613125 236.10734375 48.15625 236.7421875 C47.7746875 237.15726563 47.393125 237.57234375 47 238 C46.34 238 45.68 238 45 238 C45 238.66 45 239.32 45 240 C44.34 240 43.68 240 43 240 C43 240.66 43 241.32 43 242 C42.34 242 41.68 242 41 242 C40.76796875 242.56460937 40.5359375 243.12921875 40.296875 243.7109375 C28.28018022 264.92112768 -6.82465266 279.05447139 -28.75 285.4375 C-30.82927107 285.97432115 -32.9121266 286.49767562 -35 287 C-35.7321875 287.19980469 -36.464375 287.39960938 -37.21875 287.60546875 C-74.50176527 297.14131689 -115.87526189 288.42186982 -149 270 C-154.52016991 266.59625887 -159.76782436 262.82602844 -165 259 C-165.99 258.34 -166.98 257.68 -168 257 C-168 256.34 -168 255.68 -168 255 C-168.87978516 254.59587891 -168.87978516 254.59587891 -169.77734375 254.18359375 C-186.57666335 245.23773463 -198.60508728 225.83531669 -208 210 C-208.56976563 209.13246094 -209.13953125 208.26492188 -209.7265625 207.37109375 C-211 205 -211 205 -211 201 C-211.66 201 -212.32 201 -213 201 C-216.37945786 192.5803885 -219.40852913 184.14632386 -221.75 175.375 C-222.04716919 174.28674927 -222.04716919 174.28674927 -222.3503418 173.17651367 C-225.40102377 161.35039711 -226.36793589 149.4941404 -226.3125 137.3125 C-226.30686035 136.00104004 -226.3012207 134.68958008 -226.29541016 133.33837891 C-225.90310547 101.77921474 -215.41167603 73.11751405 -198 47 C-197.34 47 -196.68 47 -196 47 C-195.731875 46.2575 -195.46375 45.515 -195.1875 44.75 C-194.04723249 42.10938051 -192.90619694 40.14447156 -191 38 C-190.34 38 -189.68 38 -189 38 C-188.7834375 37.45859375 -188.566875 36.9171875 -188.34375 36.359375 C-186.53500003 33.18354656 -184.08276201 30.79271919 -181.5 28.25 C-181.00113281 27.74339844 -180.50226563 27.23679688 -179.98828125 26.71484375 C-176.25341139 23 -176.25341139 23 -174 23 C-174 22.34 -174 21.68 -174 21 C-172.1015625 19.2734375 -172.1015625 19.2734375 -169.625 17.375 C-168.81289062 16.74335937 -168.00078125 16.11171875 -167.1640625 15.4609375 C-165 14 -165 14 -163 14 C-163 13.34 -163 12.68 -163 12 C-151.12111927 3.54285905 -137.74642209 -3.24583354 -124 -8 C-122.13021484 -8.6496875 -122.13021484 -8.6496875 -120.22265625 -9.3125 C-80.91503026 -22.51260374 -36.89885995 -18.51651881 0 0 Z " fill="#5B508A" transform="translate(321,111)"/>
<path d="M0 0 C1.08023438 0.32871094 2.16046875 0.65742188 3.2734375 0.99609375 C21.70445147 7.32217812 35.99797634 20.91322049 45 38 C55.47404096 59.87982175 54.84589527 81.48512171 47 104 C45.22145675 108.39865158 42.84618636 112.20696352 40 116 C39.23558594 117.02222656 38.47117187 118.04445313 37.68359375 119.09765625 C25.87127136 134.27990964 8.59297107 145.7932752 -10.67578125 148.71875 C-33.66583174 150.66385415 -55.17342709 148.20543226 -73.625 133.1796875 C-76.58073014 130.6086899 -79.30442158 127.84268864 -82 125 C-82.64839844 124.36964844 -83.29679687 123.73929687 -83.96484375 123.08984375 C-98.65336712 107.93501805 -102.66168302 88.63805304 -102.54370117 68.25170898 C-101.99947811 49.83671946 -95.06282445 34.82695292 -83 21 C-82.49210937 20.39671875 -81.98421875 19.7934375 -81.4609375 19.171875 C-61.60478288 -2.61898187 -27.42353073 -8.57419252 0 0 Z " fill="#AE94FE" transform="translate(275,175)"/>
<path d="M0 0 C0 0.33 0 0.66 0 1 C-1.95825873 1.02694851 -3.91662226 1.04637218 -5.875 1.0625 C-7.51082031 1.07990234 -7.51082031 1.07990234 -9.1796875 1.09765625 C-12 1 -12 1 -14 0 C-16.89396262 -0.18187946 -19.76687186 -0.30739294 -22.6640625 -0.38671875 C-23.96312027 -0.42500542 -23.96312027 -0.42500542 -25.28842163 -0.46406555 C-27.12596638 -0.51613699 -28.96358788 -0.56555627 -30.80126953 -0.61254883 C-33.59323987 -0.68665698 -36.38433857 -0.77750859 -39.17578125 -0.86914062 C-40.9635138 -0.91770343 -42.75127401 -0.96526083 -44.5390625 -1.01171875 C-45.78014267 -1.05530769 -45.78014267 -1.05530769 -47.04629517 -1.09977722 C-52.41745419 -1.214432 -56.82100466 -0.40532548 -62 1 C-65 0.625 -65 0.625 -67 0 C-67 -0.33 -67 -0.66 -67 -1 C-44.88387584 -5.9200017 -22.06289481 -4.28327262 0 0 Z " fill="#474063" transform="translate(286,98)"/>
<path d="M0 0 C1.47742793 3.84131261 0.3587688 6.2434039 -1 10 C-1 10.99 -1 11.98 -1 13 C-2.42578125 14.18359375 -2.42578125 14.18359375 -4.3125 15.4375 C-8.6827815 18.93724253 -9.33249079 22.7453239 -10.296875 28.09765625 C-11.29054446 32.19930298 -13.03027489 35.03027489 -16 38 C-14.33571313 26.43667353 -8.5656511 8.5656511 0 0 Z " fill="#3C3656" transform="translate(118,166)"/>
<path d="M0 0 C0.32421875 2.15625 0.32421875 2.15625 0 5 C-1.68191514 7.05011023 -3.25303844 8.72695051 -5.1875 10.5 C-5.91163086 11.19029297 -5.91163086 11.19029297 -6.65039062 11.89453125 C-8.09365207 13.26998847 -9.54679814 14.63504927 -11 16 C-14.7142567 19.41836562 -14.7142567 19.41836562 -17.0625 23.75 C-17.5265625 24.86375 -17.5265625 24.86375 -18 26 C-20.125 26.8125 -20.125 26.8125 -22 27 C-20.87548273 24.0280615 -19.77706209 21.66559313 -18 19 C-17.34 19 -16.68 19 -16 19 C-15.5978125 17.88625 -15.5978125 17.88625 -15.1875 16.75 C-14.04723249 14.10938051 -12.90619694 12.14447156 -11 10 C-10.34 10 -9.68 10 -9 10 C-8.79375 9.46375 -8.5875 8.9275 -8.375 8.375 C-6.93750621 5.89205618 -3.18977926 0 0 0 Z " fill="#463E64" transform="translate(141,139)"/>
<path d="M0 0 C2 1.8125 2 1.8125 4 4 C4 4.99 4 5.98 4 7 C4.55429688 7.0928125 5.10859375 7.185625 5.6796875 7.28125 C8.61932977 8.19184626 10.64132387 9.6909941 13.125 11.5 C16.44469454 13.94482343 16.44469454 13.94482343 20 16 C20 16.99 20 17.98 20 19 C15.00295717 17.34417516 10.97698155 14.46698724 6.6875 11.5 C5.94693359 11.00113281 5.20636719 10.50226563 4.44335938 9.98828125 C3.39438477 9.26705078 3.39438477 9.26705078 2.32421875 8.53125 C1.68572998 8.09361328 1.04724121 7.65597656 0.3894043 7.20507812 C-0.06909912 6.80740234 -0.52760254 6.40972656 -1 6 C-1 5.34 -1 4.68 -1 4 C-1.99 3.67 -2.98 3.34 -4 3 C-2.68 2.01 -1.36 1.02 0 0 Z " fill="#3F395A" transform="translate(154,362)"/>
<path d="M0 0 C-0.66 0 -1.32 0 -2 0 C-2.33 0.99 -2.66 1.98 -3 3 C-5.43282428 4.0532349 -7.73226655 4.9027827 -10.25 5.6875 C-11.25353516 6.02491211 -11.25353516 6.02491211 -12.27734375 6.36914062 C-15.94654119 7.5549618 -19.14201627 8.27663837 -23 8 C-19.71370686 5.23174322 -16.39199914 3.85303806 -12.375 2.375 C-3.2998325 -0.98994975 -3.2998325 -0.98994975 0 0 Z " fill="#3F3A59" transform="translate(203,103)"/>
<path d="M0 0 C1.45792884 -0.05399736 2.91642712 -0.09279177 4.375 -0.125 C5.18710938 -0.14820313 5.99921875 -0.17140625 6.8359375 -0.1953125 C9 0 9 0 11 2 C14.12814514 2.24360073 14.12814514 2.24360073 17.625 2.125 C18.81351563 2.10695313 20.00203125 2.08890625 21.2265625 2.0703125 C22.59941406 2.03550781 22.59941406 2.03550781 24 2 C24.33 2.66 24.66 3.32 25 4 C25.99 4.66 26.98 5.32 28 6 C22.06619999 6.20160136 16.93626908 5.55584985 11.1875 4.125 C10.43791016 3.95097656 9.68832031 3.77695312 8.91601562 3.59765625 C5.47489149 2.7673582 2.97159366 1.98106244 0 0 Z " fill="#322D49" transform="translate(205,394)"/>
<path d="M0 0 C0.66 0.33 1.32 0.66 2 1 C-14.26923077 14 -14.26923077 14 -19 14 C-18.67 13.01 -18.34 12.02 -18 11 C-16.68 11 -15.36 11 -14 11 C-14 10.01 -14 9.02 -14 8 C-12.35 7.67 -10.7 7.34 -9 7 C-9 6.34 -9 5.68 -9 5 C-8.43410156 4.72285156 -7.86820312 4.44570313 -7.28515625 4.16015625 C-6.55167969 3.79792969 -5.81820313 3.43570312 -5.0625 3.0625 C-3.96615234 2.52302734 -3.96615234 2.52302734 -2.84765625 1.97265625 C-1.03750973 1.13628173 -1.03750973 1.13628173 0 0 Z " fill="#38344F" transform="translate(345,367)"/>
<path d="M0 0 C0 0.99 0 1.98 0 3 C0.7425 2.95875 1.485 2.9175 2.25 2.875 C6.67977525 3.07635342 9.67664302 5.1514083 13 8 C13 8.66 13 9.32 13 10 C6.48180123 8.10463724 0.82185199 5.4821006 -5 2 C-2 0 -2 0 0 0 Z " fill="#3C3656" transform="translate(180,380)"/>
<path d="M0 0 C2.77547542 0.0792993 4.46739213 0.43936014 6.41015625 2.484375 C9.45435472 6.63797524 11 9.77362417 11 15 C9.53308542 13.44555348 8.07679359 11.88107825 6.625 10.3125 C5.81289062 9.44238281 5.00078125 8.57226562 4.1640625 7.67578125 C2.11022491 5.13628893 1.0099332 3.07974134 0 0 Z " fill="#383352" transform="translate(123,335)"/>
<path d="M0 0 C1.4216868 4.26506039 -0.34613318 7.20037743 -1.9375 11.1875 C-2.22818359 11.93708984 -2.51886719 12.68667969 -2.81835938 13.45898438 C-3.53725036 15.30924477 -4.26754653 17.15506648 -5 19 C-5.99 19 -6.98 19 -8 19 C-6.33333333 14 -4.66666667 9 -3 4 C-2.34 4 -1.68 4 -1 4 C-0.67 2.68 -0.34 1.36 0 0 Z " fill="#36324F" transform="translate(399,288)"/>
<path d="M0 0 C0.66 0.33 1.32 0.66 2 1 C-0.7651789 5.75610771 -3.89943194 9.62131281 -9 12 C-9.99 11.67 -10.98 11.34 -12 11 C-10.71034824 9.62437146 -9.37310707 8.29233607 -8 7 C-7.34 7 -6.68 7 -6 7 C-6 6.34 -6 5.68 -6 5 C-4.04072937 3.2856382 -2.04119788 1.61594832 0 0 Z " fill="#393252" transform="translate(153,127)"/>
<path d="M0 0 C0.66 0.33 1.32 0.66 2 1 C0.52810903 6.64224872 0.52810903 6.64224872 -1.9375 8.3125 C-3.625 8.875 -5.3125 9.4375 -7 10 C-7.33 10.66 -7.66 11.32 -8 12 C-8 8.24111186 -7.049166 7.58681685 -4.5625 4.875 C-3.92441406 4.17117187 -3.28632813 3.46734375 -2.62890625 2.7421875 C-1.76410115 1.81724008 -0.89538137 0.89538137 0 0 Z " fill="#A48FEA" transform="translate(196,192)"/>
<path d="M0 0 C-3.57372088 1.19124029 -6.9615387 1.27171279 -10.6875 1.4375 C-15.11731158 1.66223287 -19.40178694 1.89697837 -23.6875 3.125 C-26.99854548 3.99961579 -28.77002973 4.00936571 -32 3 C-32 2.67 -32 2.34 -32 2 C-25.38266723 0.52789357 -18.81773094 -0.27140383 -12.0625 -0.6875 C-11.329104 -0.73575928 -10.59570801 -0.78401855 -9.84008789 -0.83374023 C-6.38521412 -1.02215892 -3.29796873 -1.14524763 0 0 Z " fill="#2C283F" transform="translate(251,95)"/>
<path d="M0 0 C0 2.67884659 -0.11409459 4.50335747 -1 7 C-1.99 7.66 -2.98 8.32 -4 9 C-4.309375 9.845625 -4.61875 10.69125 -4.9375 11.5625 C-5.288125 12.366875 -5.63875 13.17125 -6 14 C-8.125 14.8125 -8.125 14.8125 -10 15 C-8.87548273 12.0280615 -7.77706209 9.66559313 -6 7 C-5.34 7 -4.68 7 -4 7 C-3.71125 6.21625 -3.4225 5.4325 -3.125 4.625 C-2 2 -2 2 0 0 Z " fill="#342F4C" transform="translate(129,151)"/>
<path d="M0 0 C2.46968633 2.46968633 3.06997969 4.57488587 4.1875 7.875 C4.55230469 8.92429688 4.91710937 9.97359375 5.29296875 11.0546875 C5.98462433 13.93594885 6.03230681 15.27786612 5 18 C5 17.34 5 16.68 5 16 C4.34 16 3.68 16 3 16 C2.67 13.36 2.34 10.72 2 8 C1.34 8.66 0.68 9.32 0 10 C0 6.7 0 3.4 0 0 Z " fill="#312D49" transform="translate(394,192)"/>
<path d="M0 0 C4.49459524 0.70228051 8.90610041 2.00087613 13 4 C13.33 4.66 13.66 5.32 14 6 C9.545 6.495 9.545 6.495 5 7 C4.731875 6.21625 4.46375 5.4325 4.1875 4.625 C3.15185568 1.71885077 3.15185568 1.71885077 0 0 Z " fill="#393455" transform="translate(302,104)"/>
<path d="M0 0 C-1.49076434 3.2826932 -3.38620321 5.93077441 -5.625 8.75 C-6.57246094 9.94882812 -6.57246094 9.94882812 -7.5390625 11.171875 C-8.02117187 11.77515625 -8.50328125 12.3784375 -9 13 C-9 8.68357029 -7.42753883 4.68709134 -4.625 1.375 C-3 0 -3 0 0 0 Z " fill="#383353" transform="translate(378,334)"/>
<path d="M0 0 C3 2 3 2 3.75 5 C4 8 4 8 3 10 C3.66 10 4.32 10 5 10 C5 12.64 5 15.28 5 18 C3.4386041 15.06729118 2.33461101 12.17931727 1.375 9 C1.11460938 8.154375 0.85421875 7.30875 0.5859375 6.4375 C0 4 0 4 0 0 Z " fill="#36304D" transform="translate(98,278)"/>
<path d="M0 0 C1 2 1 2 -0.1875 5.6875 C-1.77263208 9.70170021 -3.77041513 13.30965263 -6 17 C-7 15 -7 15 -6.328125 12.79296875 C-4.48170866 8.33079594 -2.69128582 4.03692873 0 0 Z " fill="#A48FE6" transform="translate(183,208)"/>
<path d="M0 0 C2.32509781 2.13802098 3.82167236 4.18598137 5.25 7 C5.60578125 7.680625 5.9615625 8.36125 6.328125 9.0625 C7 11 7 11 6 14 C4.078125 13.3828125 4.078125 13.3828125 2 12 C1.171875 9.1796875 1.171875 9.1796875 0.75 5.875 C0.60046875 4.77929688 0.4509375 3.68359375 0.296875 2.5546875 C0.19890625 1.71164063 0.1009375 0.86859375 0 0 Z " fill="#302B47" transform="translate(385,173)"/>
<path d="M0 0 C0.99 0 1.98 0 3 0 C1.66511872 3.59391114 0.03977277 6.75490696 -2 10 C-2.66 8.68 -3.32 7.36 -4 6 C-2.1875 3 -2.1875 3 0 0 Z " fill="#3D3857" transform="translate(382,323)"/>
<path d="M0 0 C7.57142857 1.85714286 7.57142857 1.85714286 10 5 C7.125 5.625 7.125 5.625 4 6 C2.04783565 4.04783565 1.15173355 2.46800047 0 0 Z M3 6 C3.33 6.66 3.66 7.32 4 8 C3.34 7.67 2.68 7.34 2 7 C2.33 6.67 2.66 6.34 3 6 Z " fill="#3A3559" transform="translate(319,111)"/>
<path d="M0 0 C1.4746329 3.83404555 0.42974823 6.26676851 -1 10 C-1.33 10.99 -1.66 11.98 -2 13 C-2 12.34 -2 11.68 -2 11 C-2.66 11 -3.32 11 -4 11 C-2.25 3.375 -2.25 3.375 0 0 Z " fill="#464063" transform="translate(118,166)"/>
<path d="M0 0 C0 0.66 0 1.32 0 2 C-1.74784829 2.36463732 -3.49840502 2.7163078 -5.25 3.0625 C-6.71179688 3.35833984 -6.71179688 3.35833984 -8.203125 3.66015625 C-10.868119 3.98397535 -12.48871723 3.85503199 -15 3 C-13.44033782 2.491217 -11.87710759 1.99336531 -10.3125 1.5 C-9.44238281 1.2215625 -8.57226562 0.943125 -7.67578125 0.65625 C-5.00608323 0.00149195 -2.73603316 -0.11831495 0 0 Z " fill="#2F2A46" transform="translate(218,98)"/>
<path d="M0 0 C-3.36423277 2.96052484 -6.69159287 3.92289822 -11 5 C-11.33 4.01 -11.66 3.02 -12 2 C-7.82262526 0.40861915 -4.46839215 -0.21278058 0 0 Z " fill="#383252" transform="translate(321,384)"/>
<path d="M0 0 C3 1 3 1 3.94921875 2.84765625 C4.19285156 3.57855469 4.43648438 4.30945313 4.6875 5.0625 C4.93886719 5.79597656 5.19023438 6.52945312 5.44921875 7.28515625 C5.63097656 7.85105469 5.81273438 8.41695313 6 9 C5.34 9.66 4.68 10.32 4 11 C0 4.5 0 4.5 0 0 Z " fill="#36314E" transform="translate(110,312)"/>
<path d="M0 0 C1.0169313 2.65498232 1.13022151 3.69155375 0.00390625 6.359375 C-0.47175781 7.14828125 -0.94742187 7.9371875 -1.4375 8.75 C-2.14712891 9.94882812 -2.14712891 9.94882812 -2.87109375 11.171875 C-3.24363281 11.77515625 -3.61617188 12.3784375 -4 13 C-4.33 13 -4.66 13 -5 13 C-5 11.35 -5 9.7 -5 8 C-4.34 8 -3.68 8 -3 8 C-2.690625 6.865625 -2.38125 5.73125 -2.0625 4.5625 C-1 1 -1 1 0 0 Z " fill="#A792EA" transform="translate(321,275)"/>
<path d="M0 0 C-0.33 0.99 -0.66 1.98 -1 3 C-5.09724467 4.54613006 -7.81857651 5.29227216 -12 4 C-10.56570999 3.32645501 -9.12742943 2.66140299 -7.6875 2 C-6.88699219 1.62875 -6.08648437 1.2575 -5.26171875 0.875 C-3 0 -3 0 0 0 Z " fill="#363052" transform="translate(192,106)"/>
<path d="M0 0 C0.66 0.33 1.32 0.66 2 1 C0.54634731 2.17249353 -0.91307419 3.33783816 -2.375 4.5 C-3.18710937 5.1496875 -3.99921875 5.799375 -4.8359375 6.46875 C-7 8 -7 8 -9 8 C-9 7.01 -9 6.02 -9 5 C-8.43410156 4.72285156 -7.86820312 4.44570313 -7.28515625 4.16015625 C-6.55167969 3.79792969 -5.81820313 3.43570312 -5.0625 3.0625 C-3.96615234 2.52302734 -3.96615234 2.52302734 -2.84765625 1.97265625 C-1.03750973 1.13628173 -1.03750973 1.13628173 0 0 Z " fill="#2C2741" transform="translate(345,367)"/>
<path d="M0 0 C3.45925163 1.2491742 6.14693203 2.67527795 9 5 C8.67 5.66 8.34 6.32 8 7 C6.68 6.67 5.36 6.34 4 6 C4 5.01 4 4.02 4 3 C2.35 3 0.7 3 -1 3 C-0.67 2.01 -0.34 1.02 0 0 Z " fill="#302A45" transform="translate(342,125)"/>
<path d="M0 0 C0 3.5747073 -0.55352838 4.46916729 -3 7 C-5.6875 7.75 -5.6875 7.75 -8 8 C-6.49776416 3.79373966 -3.71449966 2.26099979 0 0 Z " fill="#625299" transform="translate(299,307)"/>
<path d="M0 0 C0 0.66 0 1.32 0 2 C-3.07115285 4.95303159 -5.8333396 5.52651586 -10 6 C-4.4 0 -4.4 0 0 0 Z " fill="#312E48" transform="translate(173,115)"/>
<path d="M0 0 C0.99 0 1.98 0 3 0 C3 0.66 3 1.32 3 2 C2.34 2 1.68 2 1 2 C1 2.66 1 3.32 1 4 C0.34 4 -0.32 4 -1 4 C-1 4.66 -1 5.32 -1 6 C-1.66 6 -2.32 6 -3 6 C-3.33 6.66 -3.66 7.32 -4 8 C-4.33 7.01 -4.66 6.02 -5 5 C-4.01 5 -3.02 5 -2 5 C-1.7834375 4.0409375 -1.7834375 4.0409375 -1.5625 3.0625 C-1 1 -1 1 0 0 Z " fill="#36314E" transform="translate(365,347)"/>
<path d="M0 0 C0.66 0 1.32 0 2 0 C2.66 3.3 3.32 6.6 4 10 C3.34 10 2.68 10 2 10 C0.68373308 6.38026598 0 3.90432869 0 0 Z " fill="#62529A" transform="translate(323,219)"/>
<path d="M0 0 C1.5 1.125 1.5 1.125 3 3 C3.1875 6.1875 3.1875 6.1875 3 9 C2.34 9 1.68 9 1 9 C-1.09230769 4.56923077 -1.09230769 4.56923077 -0.625 1.6875 C-0.41875 1.130625 -0.2125 0.57375 0 0 Z " fill="#35314D" transform="translate(107,303)"/>
<path d="M0 0 C1.29227216 4.18142349 0.54613006 6.90275533 -1 11 C-1.99 11.33 -2.98 11.66 -4 12 C-3.33989524 9.15449988 -2.48275034 6.47674001 -1.4375 3.75 C-1.16808594 3.04359375 -0.89867188 2.3371875 -0.62109375 1.609375 C-0.41613281 1.07828125 -0.21117188 0.5471875 0 0 Z " fill="#272339" transform="translate(110,180)"/>
<path d="M0 0 C3.7952131 1.49097658 5.61042731 3.75700849 8 7 C5 7 5 7 2 5 C0.8125 2.375 0.8125 2.375 0 0 Z " fill="#302C4A" transform="translate(351,132)"/>
<path d="M0 0 C0 3.51716303 -0.82445585 4.37121748 -3 7 C-4.32 6.34 -5.64 5.68 -7 5 C-4.69 3.35 -2.38 1.7 0 0 Z " fill="#A893EE" transform="translate(206,184)"/>
<path d="M0 0 C2.97 0.495 2.97 0.495 6 1 C2.81237635 3.12508244 0.73487777 3.5020163 -3 4 C-2.34 3.67 -1.68 3.34 -1 3 C-0.67 2.01 -0.34 1.02 0 0 Z " fill="#332F4A" transform="translate(299,390)"/>
<path d="M0 0 C2.97 0.33 5.94 0.66 9 1 C9.33 1.99 9.66 2.98 10 4 C6.58978257 3.21302675 3.31114834 2.12880057 0 1 C0 0.67 0 0.34 0 0 Z " fill="#2D2942" transform="translate(194,390)"/>
<path d="M0 0 C1.32 0.33 2.64 0.66 4 1 C1.03 3.475 1.03 3.475 -2 6 C-2.33 5.01 -2.66 4.02 -3 3 C-2.01 3 -1.02 3 0 3 C0 2.01 0 1.02 0 0 Z " fill="#332F48" transform="translate(355,357)"/>
<path d="M0 0 C1.98 1.65 3.96 3.3 6 5 C5.67 5.66 5.34 6.32 5 7 C2 6 2 6 0 3 C0 2.01 0 1.02 0 0 Z " fill="#63549A" transform="translate(192,299)"/>
<path d="M0 0 C2.79872437 2.52788007 4.45773019 4.20411134 5 8 C4.01 8 3.02 8 2 8 C1.34 5.36 0.68 2.72 0 0 Z " fill="#2E2943" transform="translate(379,163)"/>
<path d="" fill="#000000" transform="translate(0,0)"/>
<path d="" fill="#000000" transform="translate(0,0)"/>
<path d="" fill="#000000" transform="translate(0,0)"/>
<path d="" fill="#000000" transform="translate(0,0)"/>
<path d="" fill="#000000" transform="translate(0,0)"/>
<path d="" fill="#000000" transform="translate(0,0)"/>
<path d="" fill="#000000" transform="translate(0,0)"/>
<path d="" fill="#000000" transform="translate(0,0)"/>
<path d="" fill="#000000" transform="translate(0,0)"/>
<path d="" fill="#000000" transform="translate(0,0)"/>
<path d="" fill="#000000" transform="translate(0,0)"/>
<path d="" fill="#000000" transform="translate(0,0)"/>
<path d="" fill="#000000" transform="translate(0,0)"/>
<path d="" fill="#000000" transform="translate(0,0)"/>
<path d="" fill="#000000" transform="translate(0,0)"/>
<path d="" fill="#000000" transform="translate(0,0)"/>
<path d="" fill="#000000" transform="translate(0,0)"/>
<path d="" fill="#000000" transform="translate(0,0)"/>
<path d="" fill="#000000" transform="translate(0,0)"/>
<path d="" fill="#000000" transform="translate(0,0)"/>
<path d="" fill="#000000" transform="translate(0,0)"/>
<path d="" fill="#000000" transform="translate(0,0)"/>
<path d="" fill="#000000" transform="translate(0,0)"/>
<path d="" fill="#000000" transform="translate(0,0)"/>
<path d="" fill="#000000" transform="translate(0,0)"/>
<path d="" fill="#000000" transform="translate(0,0)"/>
<path d="" fill="#000000" transform="translate(0,0)"/>
<path d="" fill="#000000" transform="translate(0,0)"/>
<path d="" fill="#000000" transform="translate(0,0)"/>
<path d="" fill="#000000" transform="translate(0,0)"/>
<path d="" fill="#000000" transform="translate(0,0)"/>
<path d="" fill="#000000" transform="translate(0,0)"/>
<path d="" fill="#000000" transform="translate(0,0)"/>
<path d="" fill="#000000" transform="translate(0,0)"/>
<path d="" fill="#000000" transform="translate(0,0)"/>
<path d="" fill="#000000" transform="translate(0,0)"/>
<path d="" fill="#000000" transform="translate(0,0)"/>
<path d="" fill="#000000" transform="translate(0,0)"/>
<path d="" fill="#000000" transform="translate(0,0)"/>
<path d="" fill="#000000" transform="translate(0,0)"/>
<path d="" fill="#000000" transform="translate(0,0)"/>
<path d="" fill="#000000" transform="translate(0,0)"/>
<path d="" fill="#000000" transform="translate(0,0)"/>
<path d="" fill="#000000" transform="translate(0,0)"/>
<path d="" fill="#000000" transform="translate(0,0)"/>
<path d="" fill="#000000" transform="translate(0,0)"/>
<path d="" fill="#000000" transform="translate(0,0)"/>
<path d="" fill="#000000" transform="translate(0,0)"/>
<path d="" fill="#000000" transform="translate(0,0)"/>
<path d="" fill="#000000" transform="translate(0,0)"/>
<path d="" fill="#000000" transform="translate(0,0)"/>
<path d="" fill="#000000" transform="translate(0,0)"/>
<path d="" fill="#000000" transform="translate(0,0)"/>
<path d="" fill="#000000" transform="translate(0,0)"/>
<path d="" fill="#000000" transform="translate(0,0)"/>
<path d="" fill="#000000" transform="translate(0,0)"/>
<path d="" fill="#000000" transform="translate(0,0)"/>
</svg>
